<?xml version="1.0"?>
<svg xmlns="http://www.w3.org/2000/svg" xmlns:xlink="http://www.w3.org/1999/xlink" xmlns:svgjs="http://svgjs.com/svgjs" version="1.1" width="512" height="512" x="0" y="0" viewBox="0 0 512 512" style="enable-background:new 0 0 512 512" xml:space="preserve"><g><g xmlns="http://www.w3.org/2000/svg"><path d="m458.343 98.062-38.735-4.667-98.233-93.395v81.56l-253.138-30.496c-17.292-2.083-34.692 3.35-47.726 14.908-13.035 11.559-20.511 28.18-20.511 45.601v90.349c11.607-9.913 26.016-16.704 41.986-18.896l346.608-47.589c3.69-.508 7.457-.766 11.188-.766 19.849 0 39.022 7.188 53.989 20.238 17.898 15.608 28.162 38.179 28.162 61.926v69.21c5.132-3.019 9.845-6.792 13.961-11.263 10.386-11.282 16.106-25.942 16.106-41.277v-74.934c0-30.811-23.068-56.824-53.657-60.509z" fill="#ffffff" data-original="#000000" style=""/><path d="m452.933 216.835c0-15.365-6.642-29.969-18.222-40.068-11.58-10.098-26.954-14.694-42.172-12.6l-346.608 47.589c-26.185 3.595-45.931 26.238-45.931 52.668v98.946c0 25.709 17.99 47.225 42.671 52.125l101.502 96.505v-86.63l250.596 23.677c14.871 1.41 29.734-3.554 40.781-13.606 11.047-10.053 17.383-24.385 17.383-39.321zm-264.228 102.207h-29.973v-29.971h29.973zm62.945 0h-29.973v-29.971h29.973zm62.947 0h-29.973v-29.971h29.973z" fill="#ffffff" data-original="#000000" style=""/></g></g></svg>
